<svg version="1.1" xmlns="http://www.w3.org/2000/svg" viewBox="-2605.987785138017 -1727.8720733642579 8398.75607024563 2602.752081298828"><desc>Created with Snap</desc><defs><linearGradient x1="-2605.987785138017" y1="-1727.8720733642579" x2="5792.768285107613" y2="-1727.8720733642579" gradientUnits="userSpaceOnUse" id="linearGradientSl03iwss3248"><stop offset="0%" stop-color="#8a0059"></stop><stop offset="100%" stop-color="#e9640c"></stop></linearGradient></defs><g><rect x="-2605.987785138017" y="-1727.8720733642579" width="8398.75607024563" height="2602.752081298828" fill="url('#linearGradientSl03iwss3248')"></rect><g transform="matrix(22.1174,0,0,22.1174,-2409.3746,-1531.259)"><g><path d="M78.4,66.5c-5.5,4.8-9.9,15.2-9.9,15.2s-6.9-11.4-12.9-15.3c-9.5-6.1-13.6-6.2-13.6-6.2V65c0,0,7.8,1.2,11.7,4.6   c8.2,7.1,14.8,18.5,14.8,18.5S74.4,75,80.1,70.5C88.1,64.3,95,65,95,65v-4.8C95,60.1,85.1,60.7,78.4,66.5z" fill="#ffffff" style=""></path><path d="M42,80c-6.4-3.6-17.8-4.3-17.8-4.3s8.7-10.1,10.5-17C37.5,47.9,36.2,44,36.2,44l-4.6,1.6c0,0,1.3,7.7-0.6,12.4   c-4.1,9.9-13,19.8-13,19.8s14.6,1.3,20.7,5.1c8.6,5.4,10.2,12,10.2,12l4.6-1.6C53.5,93.4,49.7,84.4,42,80z" fill="#ffffff" style=""></path><path d="M35.3,36.8c11.3-0.9,14.6-3.4,14.6-3.4l-3-3.8c0,0-6.9,3.7-12.1,3.4c-10.9-0.6-23.3-5.6-23.3-5.6s3.5,14,1.8,20.9   C10.9,58.2,5,61.8,5,61.8l3,3.8c0,0,7.5-6.5,9.1-15.1c1.3-7.1-1.7-18-1.7-18S28,37.4,35.3,36.8z" fill="#ffffff" style=""></path><path d="M37.4,17.8c7.3-1.1,16.7-7.4,16.7-7.4s-0.6,13.2,2.4,19.8c4.6,10.2,8,12.5,8,12.5l2.7-4c0,0-5.9-5.2-7.3-10.2   C56.9,18.2,57.7,5,57.7,5s-12.3,7.8-19.5,8.5c-10.2,1-15.6-3.3-15.6-3.3l-2.7,4.1C19.9,14.2,28.6,19.1,37.4,17.8z" fill="#ffffff" style=""></path><path d="M65,60.5c0,0,3.1-7.2,7.4-10.1c9-6.1,21.9-9.7,21.9-9.7s-11.5-8.9-14.5-15.4c-4.2-9.1-1.9-15.6-1.9-15.6l-4.8-1.2   c0,0-1.9,9.6,2.2,17.4c3.4,6.4,12.5,13.2,12.5,13.2S75,42.9,69.6,47.8c-8.3,7.6-9.4,11.5-9.4,11.5L65,60.5z" fill="#ffffff" style=""></path></g><desc>Created with Snap</desc><defs></defs></g><g><g transform="matrix(1.024,0,0,-1.024,0,0)"><path d="M887 829Q915 825 925 812Q936 799 936 778Q936 709 862 714L827 717Q768 722 709 725Q651 728 587 728L542 728Q530 580 517 458L689 461Q726 461 738 448Q751 435 751 413Q751 379 731 359Q711 340 674 340L503 340L497 297Q476 132 407 62Q339 -8 219 -8Q151 -8 94 21Q37 51 10 93Q-1 110 -1 134Q-1 158 10 176Q22 194 39 194Q51 194 62 186Q74 178 92 155Q140 92 211 92Q268 92 306 138Q345 185 356 285L362 340L314 340Q291 340 274 353Q258 366 258 390Q258 421 274 437Q290 454 321 454Q349 454 376 455Q388 565 402 722Q294 712 250 687Q206 662 206 613Q206 579 226 548Q232 539 232 530Q232 512 212 498Q192 485 167 485Q140 485 121 501Q109 511 98 542Q87 573 87 611Q87 735 214 791Q342 847 587 847Q757 847 887 829ZM862 -5Q817 -5 788 36Q760 78 760 140Q760 215 770 277Q780 340 803 410Q813 440 831 453Q849 466 888 466Q910 466 918 459Q927 452 927 438Q927 430 916 384Q906 347 900 317Q880 212 880 177Q880 156 885 147Q890 139 901 139Q916 139 938 169Q961 199 986 260Q1012 321 1036 410Q1044 440 1060 453Q1077 466 1110 466Q1133 466 1142 460Q1151 455 1151 440Q1151 415 1126 303Q1098 175 1098 145Q1098 126 1106 115Q1114 105 1127 105Q1147 105 1174 129Q1202 154 1248 209Q1260 223 1275 223Q1288 223 1295 211Q1303 199 1303 178Q1303 138 1284 116Q1241 63 1191 29Q1142 -5 1079 -5Q1031 -5 1008 32Q986 69 986 136Q969 68 935 31Q901 -5 862 -5ZM1293 -5Q1255 -5 1239 35Q1224 75 1224 163Q1224 293 1261 410Q1270 439 1290 452Q1311 466 1348 466Q1368 466 1376 461Q1384 456 1384 442Q1384 426 1369 370Q1359 330 1353 300Q1347 270 1343 226Q1376 312 1417 366Q1458 420 1497 443Q1537 466 1570 466Q1635 466 1635 401Q1635 388 1626 338Q1618 298 1618 288Q1618 253 1643 253Q1671 253 1715 297Q1728 310 1742 310Q1755 310 1762 298Q1770 287 1770 268Q1770 231 1750 210Q1722 181 1684 160Q1647 140 1605 140Q1552 140 1524 167Q1497 194 1497 240Q1497 255 1500 270Q1502 290 1502 297Q1502 313 1491 313Q1476 313 1451 279Q1427 246 1403 191Q1379 136 1364 75Q1353 28 1338 11Q1324 -5 1293 -5ZM1748 -5Q1710 -5 1694 35Q1679 75 1679 163Q1679 293 1716 410Q1725 439 1745 452Q1766 466 1803 466Q1823 466 1831 461Q1839 456 1839 442Q1839 426 1824 370Q1814 330 1808 300Q1802 270 1798 226Q1831 312 1872 366Q1913 420 1952 443Q1992 466 2025 466Q2090 466 2090 401Q2090 362 2068 260Q2049 173 2049 145Q2049 105 2078 105Q2098 105 2125 129Q2153 154 2199 209Q2211 223 2226 223Q2239 223 2246 211Q2254 199 2254 178Q2254 138 2235 116Q2192 63 2142 29Q2093 -5 2030 -5Q1979 -5 1953 24Q1927 54 1927 110Q1927 138 1941 210Q1954 273 1954 297Q1954 313 1943 313Q1930 313 1906 279Q1883 246 1858 191Q1834 136 1819 75Q1808 28 1793 11Q1779 -5 1748 -5ZM2690 -5Q2621 -5 2565 29Q2510 63 2478 127Q2446 192 2446 280Q2446 432 2511 561Q2576 691 2703 769Q2830 848 3008 848Q3054 848 3106 841Q3159 834 3202 820Q3230 812 3230 780Q3230 754 3210 731Q3191 708 3165 708Q3157 708 3153 709Q3101 721 3064 726Q3027 732 2986 732Q2859 732 2770 670Q2681 609 2637 508Q2593 407 2593 290Q2593 205 2626 158Q2660 112 2714 112Q2775 112 2821 162Q2867 212 2905 324Q2943 436 2980 628Q2986 656 3004 666Q3022 676 3052 676Q3123 676 3123 630Q3123 622 3120 610Q3094 513 3072 395Q3051 278 3051 217Q3051 163 3067 138Q3083 114 3116 114Q3148 114 3177 135Q3206 157 3250 209Q3262 223 3277 223Q3290 223 3297 211Q3305 199 3305 178Q3305 139 3286 116Q3237 57 3190 26Q3143 -5 3075 -5Q3005 -5 2962 35Q2919 76 2908 150Q2834 -5 2690 -5ZM3295 -5Q3257 -5 3241 35Q3226 75 3226 163Q3226 293 3263 410Q3272 439 3292 452Q3313 466 3350 466Q3370 466 3378 461Q3386 456 3386 442Q3386 426 3371 370Q3361 330 3355 300Q3349 271 3345 227Q3372 305 3409 359Q3447 413 3486 439Q3526 466 3561 466Q3596 466 3610 450Q3625 434 3625 401Q3625 369 3606 285Q3598 249 3595 231Q3645 354 3706 410Q3767 466 3820 466Q3885 466 3885 401Q3885 362 3863 260Q3844 173 3844 145Q3844 105 3873 105Q3893 105 3920 129Q3948 154 3994 209Q4006 223 4021 223Q4034 223 4041 211Q4049 199 4049 178Q4049 138 4030 116Q3987 63 3937 29Q3888 -5 3825 -5Q3774 -5 3748 24Q3722 54 3722 110Q3722 138 3736 210Q3749 273 3749 297Q3749 313 3738 313Q3725 313 3701 279Q3677 246 3653 191Q3629 136 3614 75Q3603 27 3588 11Q3574 -5 3542 -5Q3509 -5 3492 26Q3476 58 3476 103Q3476 141 3486 213Q3494 277 3494 297Q3494 313 3483 313Q3468 313 3445 277Q3422 241 3400 185Q3379 129 3366 75Q3355 28 3340 11Q3326 -5 3295 -5ZM4091 -5Q4029 -5 3992 40Q3955 85 3955 158Q3955 238 3992 309Q4029 381 4090 424Q4152 468 4221 468Q4243 468 4250 459Q4258 451 4263 429Q4284 433 4307 433Q4356 433 4356 398Q4356 377 4341 298Q4318 183 4318 138Q4318 123 4325 114Q4333 105 4345 105Q4364 105 4391 129Q4418 154 4464 209Q4476 223 4491 223Q4504 223 4511 211Q4519 199 4519 178Q4519 138 4500 116Q4459 65 4413 30Q4367 -5 4324 -5Q4291 -5 4263 17Q4236 40 4222 79Q4170 -5 4091 -5ZM4127 96Q4149 96 4169 122Q4189 148 4198 191L4235 375Q4193 374 4157 343Q4122 313 4101 263Q4080 213 4080 157Q4080 126 4092 111Q4105 96 4127 96ZM4937 223Q4950 223 4957 211Q4965 199 4965 178Q4965 141 4946 116Q4899 55 4829 20Q4760 -15 4673 -15Q4605 -15 4555 5Q4505 26 4478 61Q4452 97 4452 141Q4452 207 4505 258Q4558 309 4657 356L4493 352Q4471 351 4459 367Q4448 384 4448 407Q4448 431 4459 449Q4471 468 4491 468Q4537 468 4614 461Q4630 460 4672 457Q4715 454 4744 454Q4754 454 4782 462Q4787 463 4801 467Q4816 471 4826 471Q4842 471 4852 457Q4863 443 4863 414Q4863 382 4848 364Q4833 346 4801 332Q4710 293 4650 248Q4590 204 4590 160Q4590 132 4616 114Q4642 96 4693 96Q4749 96 4806 124Q4864 152 4910 209Q4922 223 4937 223ZM5329 223Q5342 223 5349 211Q5357 199 5357 178Q5357 138 5338 116Q5301 71 5233 33Q5166 -5 5089 -5Q4984 -5 4926 52Q4868 109 4868 208Q4868 277 4897 336Q4926 396 4977 431Q5029 466 5094 466Q5152 466 5187 431Q5222 397 5222 338Q5222 269 5172 219Q5123 170 5005 141Q5030 95 5100 95Q5145 95 5202 126Q5260 158 5302 209Q5314 223 5329 223ZM5077 368Q5040 368 5014 325Q4989 282 4989 221L4989 219Q5048 233 5082 261Q5116 289 5116 326Q5116 345 5105 356Q5095 368 5077 368Z" fill="#ffffff" style=""></path></g></g></g></svg>